<?xml version="1.0" encoding="utf-8"?>
<!-- Generator: Adobe Illustrator 25.2.1, SVG Export Plug-In . SVG Version: 6.00 Build 0)  -->
<svg version="1.0" id="Ebene_1" xmlns="http://www.w3.org/2000/svg" xmlns:xlink="http://www.w3.org/1999/xlink" x="0px" y="0px"
	 viewBox="0 0 7504 2785" style="enable-background:new 0 0 7504 2785;" xml:space="preserve">
<style type="text/css">
	.st0{clip-path:url(#SVGID_2_);fill:#FFFFFF;}
	.st1{clip-path:url(#SVGID_2_);fill:#00A651;}
	.st2{clip-path:url(#SVGID_2_);fill:#F5F5F5;}
	.st3{clip-path:url(#SVGID_2_);fill:#ED1C24;}
	.st4{fill:#FFFFFF;}
	.st5{fill-rule:evenodd;clip-rule:evenodd;fill:#FFFFFF;}
</style>
<g>
	<defs>
		<path id="SVGID_1_" d="M2559.5,2103.5c-154.2,0-280-126-280-280.5s125.8-280.5,280-280.5s280,126,280,280.5
			S2713.7,2103.5,2559.5,2103.5z"/>
	</defs>
	<clipPath id="SVGID_2_">
		<use xlink:href="#SVGID_1_"  style="overflow:visible;"/>
	</clipPath>
	<rect x="2137" y="1538" class="st0" width="844" height="570"/>
	<path class="st1" d="M2418.3,2108.8h-266.8c-8,0-14.6-6.7-14.6-15v-539.1c0-8.3,6.5-15,14.6-15h266.8V2108.8z"/>
	<path class="st2" d="M2699.7,1539.7h-281.3v569.1h281.3V1539.7z"/>
	<path class="st3" d="M2966.4,2108.8h-266.8v-569.1h266.8c8,0,14.6,6.7,14.6,15v539.1C2981,2102.1,2974.5,2108.8,2966.4,2108.8z"/>
</g>
<path class="st4" d="M3319.6,1582V876h184.1v706H3319.6z"/>
<path class="st4" d="M4146.7,876h186.1l-321.2,706h-146.1l-321.2-706h191.1l205.2,476.7L4146.7,876z"/>
<path class="st4" d="M4840.1,1582l-63-146.2h-312.2l-63,146.2h-185.1l329.2-706H4692l330.2,706H4840.1z M4523.9,1297.6H4718
	l-97.1-226.3L4523.9,1297.6z"/>
<path class="st4" d="M5380.7,1591c-72.1,0-134.8-14.7-188.1-44.1c-52.7-30-93.4-72.1-122.1-126.2c-28.7-54.7-43-118.8-43-192.3
	c0-73.4,14.3-137.2,43-191.3c28.7-54.7,69.4-96.8,122.1-126.2c53.4-29.4,116.1-44.1,188.1-44.1c72,0,134.4,14.7,187.1,44.1
	c53.4,29.4,94.1,71.4,122.1,126.2c28.7,54.1,43,117.8,43,191.3c0,73.4-14.3,137.5-43,192.3c-28.7,54.1-69.7,96.1-123.1,126.2
	C5514.1,1576.3,5452.1,1591,5380.7,1591z M5380.7,1449.8c53.4,0,95.1-18.7,125.1-56.1c30-38,45-93.1,45-165.2s-15.3-126.8-46-164.2
	c-30-37.4-71.4-56.1-124.1-56.1c-53.4,0-95.1,18.7-125.1,56.1c-30,36.7-45,91.5-45,164.2s15,127.8,45,165.2
	C5285.6,1431.1,5327.3,1449.8,5380.7,1449.8z"/>
<path class="st4" d="M3339.8,2108v-256.5h37.5V2108H3339.8z M3498,2108v-225.2h-86.6v-31.3h211.4v31.3h-87V2108H3498z M3822.4,2108
	l-27.3-63.3h-129.9l-27.3,63.3h-37.8l114.3-256.5h31.3l114.3,256.5H3822.4z M3677.9,2014.8h104.4l-52-121.5L3677.9,2014.8z
	 M3893.5,2108v-256.5h37.5v225.2h124.4v31.3H3893.5z M4250.4,1851.5l-102.3,136.8V2108h-37.5v-119.7l-102.3-136.8h42.9l78.2,105.9
	l78.2-105.9H4250.4z"/>
<path class="st4" d="M2559.5,1548.9c150.4,0,273.6,123.4,273.6,274.1s-123.2,274.1-273.6,274.1s-273.6-123.4-273.6-274.1
	S2409,1548.9,2559.5,1548.9z M2559.5,1538c-157,0-284.5,127.8-284.5,285s127.5,285,284.5,285s284.5-127.8,284.5-285
	S2716.5,1538,2559.5,1538z"/>
<path class="st5" d="M2165.5,1426.5c-0.3,0-35.4-4.5-39.5-4.7c-0.4,0-0.9,0-1.4-0.1c-3.2-0.1-8.7-0.3-12.6-0.6
	c-2.8-0.2-5.9-2.5-6-5.3c-0.1-1.4-0.1-3-0.1-4.7c0-1.4,0-2.9-0.1-4.3c0-6.1,0.7-16,1-18.3c0-0.1,0.1-0.3,0.2-0.5
	c0.2-0.4,0.7-0.5,1.1-0.5h7.8c1.2,0,1.2,3,1.1,4.8c0,0.1,0,0.2,0,0.4c0,1.6-0.4,14-0.4,15.7c0,1.8,3.4,3.2,7.7,3.1
	c4.3-0.2,41.3-2.3,42-2.3c0,0,0,0,0,0c0.7,0,77.4-3.4,85.5-3.8c8.1-0.4,9.3-12.2,9.2-21.4c-0.1-5.7-1.3-11.3-2.2-14.7
	c-0.5-2-2.4-3.4-4.5-3.4l-9.3-0.2c-1.4,0-2.5-1.2-2.4-2.7c0.1-1.4,1.2-2.4,2.6-2.3l23.1,1c2.3,0.1,4.2,1.8,5.3,3.9
	c0.8,1.5,2.1,2.8,3.8,2.8c1.1,0,1.9-0.5,2.5-1.2c0.1-0.1,0.2-0.3,0.3-0.4c1.7-2,3.6-4.3,6.2-4.2c2.7,0.1,4.8,2.3,4.7,5
	c-0.1,4.4-0.2,10.7-0.3,13.9c0,5.4,2.3,10.4,5.8,10.6c1.4,0.1,2.4-0.5,3.1-1.4c1.7-2,3.8-4.1,6.4-4l7.8,0.3c2.7,0.1,4.7,2.4,5.6,4.9
	c0.7,1.8,1.9,3.4,4,3.4c2.2,0.2,3.5-1.4,4.4-3.2c1.1-2.4,3.3-4.5,5.9-4.4l50.6,1.8c1.7,0.1,3,1.3,4.3,2.5c0.7,0.6,1.4,1.3,2.1,1.8
	c0.4,0.2,0.9,0.4,1.4,0.4c1,0,1.9-0.5,2.5-1.1c1.6-1.5,3.4-3,5.6-3l20.2,0.6c1.5,0,2.9-0.6,3.9-1.7l0.4-0.4c1.9-2.2,5.4-2.3,7.6-0.3
	c3.3,2.8,8,6.2,11.5,6.1c5.9,0,15.6-8.1,19.4-16.5c1.7-3.7,2.6-7,3.1-9.5c0.6-2.7,2.8-4.9,5.6-4.9c23-0.1,119-0.3,128.3-0.3
	c10.6-0.2,11.7-27.5,10.9-25.7c-0.4,1-1.8,4.6-2.8,7.4c-0.8,2.1-2.9,3.4-5.1,3.2l-144.2-11.7c-1.6-0.1-3-1-4.1-2.2
	c-2.1-2.3-6.6-6-13.3-6.5c-6.4-0.5-10.9,2.4-13.3,4.5c-1.4,1.2-3.3,2-5.2,1.7l-122.5-19.8c-1.6-0.2-2.9-1.2-3.8-2.5
	c-2.7-3.8-9.6-11.3-21.5-11.6c-6.9-0.3-10.9,1.5-13.1,3.3c-2,1.7-4.7,3.3-7.3,2.9c-127.1-22.6-139.8-36-141.1-38
	c-0.1-0.2-0.1-0.3-0.2-0.5c-0.2-2.3-1.8-18.4-1.8-41.8c0-94.1-39.7-147.9-55.7-147.9c-0.1,0-0.1,0-0.2,0c-0.1,0-0.1,0-0.2,0
	c-16,0-55.7,53.8-55.7,147.9c0,23.4-1.5,39.5-1.8,41.8c0,0.2,0,0.4-0.1,0.5c-1.2,2-14,15.4-141.1,38c-2.6,0.5-5.3-1.2-7.3-2.9
	c-2.2-1.8-6.2-3.6-13.1-3.3c-11.8,0.3-18.7,7.8-21.4,11.6c-0.9,1.3-2.3,2.2-3.8,2.5l-122.5,19.8c-1.8,0.3-3.7-0.5-5.2-1.7
	c-2.4-2.1-6.9-4.9-13.3-4.5c-6.8,0.5-11.2,4.2-13.3,6.5c-1.1,1.2-2.5,2-4.1,2.2l-144.2,11.7c-2.2,0.2-4.3-1.1-5.1-3.2
	c-1-2.8-2.4-6.4-2.8-7.4c-0.7-1.8,0.4,25.5,10.9,25.7c9.3,0,105.2,0.3,128.3,0.3c2.8,0,5,2.2,5.6,4.9c0.5,2.5,1.4,5.7,3.1,9.5
	c3.8,8.5,13.5,16.5,19.4,16.5c3.5,0.1,8.2-3.3,11.5-6.1c2.2-1.9,5.7-1.9,7.6,0.3l0.4,0.4c1,1.1,2.4,1.7,3.9,1.7l20.2-0.6
	c2.2-0.1,4,1.5,5.6,3c0.7,0.6,1.5,1.1,2.5,1.1c0.6,0,1-0.2,1.4-0.4c0.8-0.5,1.4-1.1,2.1-1.8c1.3-1.2,2.6-2.4,4.3-2.5l50.6-1.8
	c2.7-0.1,4.8,2,6,4.4c0.8,1.8,2.2,3.3,4.4,3.2c2.2,0,3.4-1.6,4-3.4c0.9-2.5,2.9-4.8,5.6-4.9l7.8-0.3c2.6-0.1,4.6,2,6.3,4
	c0.7,0.8,1.7,1.4,3.1,1.4c3.4-0.2,5.8-5.2,5.8-10.6c-0.1-3.2-0.2-9.5-0.3-13.9c0-2.7,2.1-4.9,4.7-5c2.6-0.1,4.5,2.2,6.2,4.2
	c0.1,0.1,0.2,0.3,0.3,0.4c0.6,0.7,1.4,1.2,2.5,1.2c1.8,0,3-1.3,3.8-2.8c1.1-2,3-3.8,5.3-3.9l23.1-1c1.3-0.1,2.5,1,2.6,2.3
	c0.1,1.4-1,2.6-2.4,2.7l-9.4,0.2c-2.1,0.1-3.9,1.4-4.5,3.4c-0.9,3.4-2.1,9-2.2,14.7c-0.2,9.2,1.1,21.1,9.2,21.4
	c8,0.4,84.8,3.7,85.5,3.8c0,0,0,0,0,0c0.7,0,37.7,2.2,42,2.3c4.3,0.2,7.7-1.2,7.7-3.1c0-1.7-0.3-14-0.4-15.7c0-0.1,0-0.2,0-0.2
	c0,0,0-0.1,0-0.1c-0.2-1.8-0.1-4.8,1.1-4.8h7.8c0.4,0,0.9,0.1,1.1,0.5c0.1,0.1,0.2,0.3,0.2,0.5c0.4,2.3,1,12.2,1,18.3
	c0,1.4-0.1,2.9-0.1,4.3c0,1.7,0,3.3-0.1,4.7c-0.1,2.8-3.3,5.1-6,5.2c-3.8,0.2-9,0.5-12.2,0.6c-0.8,0-1.4,0.1-1.9,0.1
	c-4.1,0.2-39.2,4.6-39.5,4.7c0,0,0,0,0,0c-0.3,0-75.2,9.2-77.2,9.5s-1.8,3.8,0,3.8c0.3,0,2,0.1,4.7,0.3c13.8,0.8,54.9,3.4,81.5,2.6
	c27.3-0.9,60.8-2.1,70.1-2.4c1.6-0.1,3.1,0.6,4.1,1.8c3.9,4.4,13.9,15.3,22.1,18.4c-0.7,0.5-1,0.8,0.1,0.8h3.8c0,0,0,0,0.1,0h4.2
	c1,0,0.8-0.3,0.1-0.8c8.2-3,18.3-13.9,22.1-18.4c1-1.2,2.5-1.9,4.1-1.8c9.3,0.3,42.8,1.5,70.1,2.4c26.6,0.8,67.7-1.8,81.5-2.6
	c2.7-0.2,4.4-0.3,4.7-0.3c1.8,0,2-3.4,0-3.8C2240.8,1435.6,2165.8,1426.5,2165.5,1426.5L2165.5,1426.5z"/>
<path class="st4" d="M2058,653c-364.5,0-660,295.5-660,660s295.5,660,660,660c53.4,0,105.3-6.3,155-18.3
	c-6.1-16.1-11.2-32.8-15-49.9c-45,10.6-91.8,16.2-140,16.2c-335.8,0-608-272.2-608-608s272.2-608,608-608s608,272.2,608,608
	c0,51.5-6.4,101.6-18.5,149.4c17,4.1,33.6,9.4,49.6,15.8c13.7-52.8,20.9-108.2,20.9-165.2C2718,948.5,2422.5,653,2058,653z"/>
</svg>
