<svg width="1991" height="1993" viewBox="0 0 1991 1993" fill="none" xmlns="http://www.w3.org/2000/svg">
<path d="M997.5 1509.5C1280.96 1509.5 1510.75 1279.71 1510.75 996.25C1510.75 712.79 1280.96 483 997.5 483C714.04 483 484.25 712.79 484.25 996.25C484.25 1279.71 714.04 1509.5 997.5 1509.5Z" stroke="white" stroke-width="35.3966" stroke-miterlimit="10"/>
<path fill-rule="evenodd" clip-rule="evenodd" d="M904.815 1117.06C905.009 1117.04 934.767 1113.26 938.251 1113.1C938.67 1113.09 939.22 1113.06 939.864 1113.04C942.774 1112.92 947.599 1112.72 950.876 1112.49C952.826 1112.35 955.153 1110.73 955.264 1108.78C955.34 1107.44 955.355 1105.8 955.37 1104.11C955.38 1102.89 955.391 1101.65 955.426 1100.47C955.426 1095.32 954.859 1086.9 954.546 1084.96C954.527 1084.84 954.469 1084.69 954.403 1084.58C954.204 1084.27 953.852 1084.17 953.482 1084.17H946.915C945.88 1084.17 945.851 1086.76 945.99 1088.31C945.995 1088.36 945.999 1088.41 946.002 1088.46C946.004 1088.5 946.005 1088.53 946.006 1088.57C946.039 1089.86 946.307 1100.41 946.307 1101.84C946.307 1103.36 943.419 1104.58 939.771 1104.42C936.152 1104.27 904.706 1102.47 904.212 1102.45C904.197 1102.44 904.219 1102.45 904.203 1102.44C903.705 1102.42 838.674 1099.55 831.86 1099.25C825.021 1098.94 823.957 1088.89 824.109 1081.13C824.209 1076.03 825.356 1071.06 826.133 1068.25C826.527 1066.83 827.825 1065.87 829.303 1065.84L837.697 1065.64C838.905 1065.62 839.844 1064.58 839.758 1063.38C839.676 1062.24 838.701 1061.37 837.558 1061.42L817.477 1062.28C815.84 1062.35 814.5 1063.56 813.787 1065.03C813.107 1066.44 811.992 1067.88 810.278 1067.88C809.069 1067.88 808.297 1067.22 807.805 1066.38C806.789 1064.65 805.27 1062.91 803.266 1062.99L802.032 1063.03C800.11 1063.1 798.596 1064.69 798.625 1066.61C798.682 1070.34 798.781 1076.14 798.879 1078.99C798.879 1083.56 796.903 1087.83 794.016 1087.98C792.577 1088.04 791.627 1087.25 791.008 1086.3C790.002 1084.76 788.496 1083.32 786.655 1083.39L778.713 1083.73C776.817 1083.8 775.36 1085.39 774.831 1087.22C774.326 1088.95 773.3 1090.72 771.217 1090.72C769.113 1090.88 767.928 1089.15 767.273 1087.43C766.602 1085.67 765.031 1084.22 763.15 1084.29L719.021 1085.88C717.374 1085.94 716.192 1087.31 715.087 1088.58C714.951 1088.74 714.816 1088.9 714.682 1089.05C714.287 1089.49 713.747 1089.81 713.006 1089.81C711.949 1089.81 711.121 1089.22 710.512 1088.53C709.492 1087.37 708.158 1086.33 706.616 1086.37L688.67 1086.87C687.622 1086.9 686.615 1086.46 685.921 1085.67L684.87 1084.48C683.492 1082.93 681.063 1082.88 679.507 1084.26C676.707 1086.75 672.375 1090.05 669.234 1089.96C664.219 1089.96 656.011 1083.11 652.819 1075.95C651.246 1072.42 650.448 1069.41 650.044 1067.26C649.682 1065.35 648.109 1063.76 646.159 1063.76C628.044 1063.7 544.839 1063.46 536.854 1063.46C527.887 1063.31 526.975 1040.16 527.583 1041.69C527.964 1042.64 529.243 1046.05 530.143 1048.46C530.697 1049.95 532.169 1050.89 533.749 1050.76L656.673 1040.76C657.787 1040.67 658.79 1040.06 659.53 1039.22C661.259 1037.26 665.066 1033.89 671.058 1033.46C676.749 1033.05 680.673 1035.71 682.649 1037.52C683.632 1038.41 684.957 1038.96 686.272 1038.75L790.751 1021.87C791.849 1021.69 792.798 1021.01 793.435 1020.09C795.581 1017.02 801.468 1010.25 811.798 1010.01C818.224 1009.76 821.626 1011.58 823.387 1013.26C824.717 1014.54 826.639 1015.69 828.453 1015.37C937.389 996.075 947.594 984.643 948.501 983.088C948.572 982.966 948.593 982.842 948.607 982.702C948.791 980.898 950.106 967.249 950.106 947.272C950.106 867.629 983.695 822.098 997.222 822.098C997.274 822.098 997.325 822.102 997.375 822.112C997.425 822.103 997.475 822.098 997.526 822.098C1011.05 822.098 1044.64 867.63 1044.64 947.272C1044.64 967.249 1045.96 980.899 1046.14 982.702C1046.16 982.842 1046.18 982.966 1046.25 983.088C1047.15 984.644 1057.36 996.075 1166.3 1015.37C1168.11 1015.69 1170.03 1014.54 1171.36 1013.26C1173.12 1011.58 1176.52 1009.76 1182.95 1010.01C1193.28 1010.25 1199.17 1017.02 1201.31 1020.09C1201.95 1021.01 1202.9 1021.69 1204 1021.87L1308.48 1038.75C1309.79 1038.96 1311.12 1038.41 1312.1 1037.52C1314.08 1035.71 1318 1033.06 1323.69 1033.46C1329.68 1033.89 1333.49 1037.26 1335.22 1039.22C1335.96 1040.06 1336.96 1040.67 1338.08 1040.76L1461 1050.76C1462.58 1050.89 1464.05 1049.95 1464.61 1048.46C1465.51 1046.05 1466.78 1042.64 1467.17 1041.69C1467.77 1040.16 1466.86 1063.31 1457.9 1063.46C1449.91 1063.46 1366.7 1063.7 1348.59 1063.76C1346.64 1063.76 1345.07 1065.35 1344.7 1067.27C1344.3 1069.41 1343.5 1072.42 1341.93 1075.95C1338.74 1083.11 1330.53 1089.96 1325.51 1089.96C1322.37 1090.05 1318.04 1086.75 1315.24 1084.26C1313.69 1082.88 1311.26 1082.93 1309.88 1084.48L1308.83 1085.67C1308.13 1086.46 1307.13 1086.9 1306.08 1086.87L1288.13 1086.37C1286.59 1086.33 1285.26 1087.37 1284.24 1088.53C1283.63 1089.22 1282.8 1089.81 1281.74 1089.81C1281 1089.81 1280.46 1089.49 1280.07 1089.05C1279.93 1088.9 1279.8 1088.74 1279.66 1088.58C1278.56 1087.31 1277.37 1085.94 1275.73 1085.88L1231.6 1084.29C1229.72 1084.22 1228.15 1085.67 1227.48 1087.43C1226.82 1089.15 1225.64 1090.88 1223.53 1090.72C1221.45 1090.72 1220.42 1088.96 1219.92 1087.22C1219.39 1085.39 1217.93 1083.8 1216.04 1083.73L1208.09 1083.39C1206.25 1083.32 1204.75 1084.76 1203.74 1086.3C1203.12 1087.25 1202.17 1088.04 1200.73 1087.98C1197.85 1087.83 1195.87 1083.56 1195.87 1078.99C1195.97 1076.14 1196.07 1070.34 1196.12 1066.61C1196.15 1064.69 1194.64 1063.1 1192.72 1063.03L1191.48 1062.99C1189.48 1062.91 1187.96 1064.65 1186.94 1066.38C1186.45 1067.22 1185.68 1067.88 1184.47 1067.88C1182.76 1067.88 1181.64 1066.44 1180.96 1065.03C1180.25 1063.56 1178.91 1062.35 1177.27 1062.28L1157.19 1061.42C1156.05 1061.37 1155.07 1062.24 1154.99 1063.38C1154.9 1064.59 1155.84 1065.62 1157.05 1065.65L1165.45 1065.84C1166.92 1065.88 1168.22 1066.83 1168.62 1068.25C1169.39 1071.06 1170.54 1076.03 1170.64 1081.13C1170.79 1088.89 1169.73 1098.94 1162.89 1099.25C1156.07 1099.55 1091.04 1102.42 1090.55 1102.45C1090.53 1102.45 1090.55 1102.44 1090.54 1102.45C1090.04 1102.47 1058.6 1104.27 1054.98 1104.42C1051.33 1104.58 1048.44 1103.36 1048.44 1101.84C1048.44 1100.41 1048.71 1089.86 1048.74 1088.57C1048.74 1088.53 1048.74 1088.5 1048.75 1088.47C1048.75 1088.41 1048.75 1088.36 1048.76 1088.31C1048.9 1086.76 1048.87 1084.17 1047.83 1084.17H1041.27C1040.9 1084.17 1040.54 1084.27 1040.35 1084.58C1040.28 1084.69 1040.22 1084.84 1040.2 1084.96C1039.89 1086.9 1039.32 1095.32 1039.32 1100.47C1039.36 1101.65 1039.37 1102.89 1039.38 1104.11C1039.39 1105.8 1039.41 1107.44 1039.48 1108.78C1039.6 1110.73 1041.92 1112.36 1043.87 1112.49C1047.28 1112.73 1052.37 1112.94 1055.27 1113.05C1055.74 1113.07 1056.16 1113.09 1056.5 1113.1C1059.98 1113.26 1089.74 1117.04 1089.93 1117.06L1089.93 1117.06L1089.95 1117.07C1090.98 1117.19 1153.63 1124.83 1155.29 1125.13C1156.96 1125.44 1156.81 1128.33 1155.29 1128.33C1155.04 1128.33 1153.63 1128.42 1151.33 1128.56C1139.61 1129.28 1104.82 1131.41 1082.33 1130.77C1058.9 1129.98 1030 1128.96 1022.68 1128.7C1021.57 1128.66 1020.53 1129.14 1019.8 1129.98C1016.54 1133.76 1006.89 1144.36 999.558 1146.19C999.976 1146.36 1000.43 1146.45 1000.92 1146.45H997.591C997.569 1146.45 997.548 1146.45 997.526 1146.45H993.833C994.315 1146.45 994.773 1146.36 995.191 1146.19C987.859 1144.36 978.205 1133.76 974.946 1129.98C974.221 1129.14 973.18 1128.66 972.069 1128.7C964.75 1128.96 935.845 1129.98 912.414 1130.77C889.931 1131.41 855.133 1129.28 843.421 1128.56C841.12 1128.42 839.709 1128.33 839.46 1128.33C837.94 1128.33 837.788 1125.44 839.46 1125.13C841.122 1124.83 904.115 1117.15 904.808 1117.06L904.813 1117.06C904.814 1117.06 904.814 1117.06 904.815 1117.06ZM997.374 1143.1C997.38 1143 997.38 1142.89 997.376 1142.77C997.375 1142.76 997.375 1142.74 997.374 1142.73C997.374 1142.74 997.373 1142.76 997.372 1142.77C997.368 1142.89 997.369 1143 997.374 1143.1Z" fill="white"/>
</svg>
